<svg width="97" height="31" viewBox="0 0 97 31" fill="none" xmlns="http://www.w3.org/2000/svg">
<path d="M14 1.68005C7.19599 1.68005 1.67999 7.19605 1.67999 14.0001C1.67999 20.8041 7.19599 26.3201 14 26.3201C20.804 26.3201 26.32 20.8041 26.32 14.0001C26.32 7.19605 20.804 1.68005 14 1.68005ZM14 6.16005C18.3232 6.16005 21.84 9.67685 21.84 14.0001C21.84 18.3233 18.3232 21.8401 14 21.8401C9.67679 21.8401 6.15999 18.3233 6.15999 14.0001C6.15999 9.67685 9.67679 6.16005 14 6.16005ZM14 7.28005C10.2945 7.28005 7.27999 10.2945 7.27999 14.0001C7.27999 17.7056 10.2945 20.7201 14 20.7201C17.7055 20.7201 20.72 17.7056 20.72 14.0001C20.72 10.2945 17.7055 7.28005 14 7.28005ZM12.3309 10.3611C12.4286 10.363 12.5255 10.3894 12.612 10.4421L17.652 13.5221C17.8178 13.6234 17.92 13.8046 17.92 14.0001C17.92 14.1955 17.8183 14.3761 17.652 14.478L12.612 17.558C12.5224 17.6123 12.4214 17.6401 12.32 17.6401C12.2259 17.6401 12.1317 17.6155 12.0466 17.5679C11.8696 17.4687 11.76 17.2822 11.76 17.0801V10.9201C11.76 10.7179 11.8696 10.5314 12.0466 10.4322C12.1353 10.383 12.2332 10.3593 12.3309 10.3611Z" fill="white"/>
<g filter="url(#filter0_d)">
<path d="M40.48 19.52H37.04L36.192 22H34L38.032 10.72H39.648L43.68 22H41.376L40.48 19.52ZM37.6 17.76H40L39.168 15.264L38.832 13.504H38.752L38.416 15.28L37.6 17.76ZM54.1355 16.192L54.3755 13.968H54.2795L53.5915 15.76L51.2075 19.936H50.5035L47.9915 15.744L47.2875 13.968H47.2075L47.5275 16.176V22H45.4475V10.8H47.4475L50.4395 15.92L50.9675 17.2H51.0315L51.5115 15.888L54.3435 10.8H56.3275V22H54.1355V16.192ZM65.1244 10.8H67.2044V18.032C67.2044 18.7573 67.1084 19.3813 66.9164 19.904C66.7244 20.4267 66.4577 20.8587 66.1164 21.2C65.775 21.5413 65.359 21.792 64.8684 21.952C64.3777 22.112 63.839 22.192 63.2524 22.192C60.415 22.192 58.9964 20.896 58.9964 18.304V10.8H61.1884V17.872C61.1884 18.3093 61.2257 18.6827 61.3004 18.992C61.3857 19.2907 61.5137 19.536 61.6844 19.728C61.855 19.9093 62.0684 20.0427 62.3244 20.128C62.5804 20.2027 62.879 20.24 63.2204 20.24C63.8924 20.24 64.3777 20.0533 64.6764 19.68C64.975 19.3067 65.1244 18.704 65.1244 17.872V10.8ZM74.7076 18.992C74.7076 18.6507 74.5796 18.3733 74.3236 18.16C74.0783 17.9467 73.7636 17.7547 73.3796 17.584C73.0063 17.4027 72.5956 17.2213 72.1476 17.04C71.7103 16.848 71.2996 16.6187 70.9156 16.352C70.5423 16.0747 70.2276 15.7333 69.9716 15.328C69.7263 14.9227 69.6036 14.4053 69.6036 13.776C69.6036 13.232 69.6943 12.7627 69.8756 12.368C70.057 11.9627 70.313 11.6267 70.6436 11.36C70.985 11.0933 71.385 10.896 71.8436 10.768C72.3023 10.64 72.8143 10.576 73.3796 10.576C74.0303 10.576 74.6436 10.6347 75.2196 10.752C75.7956 10.8587 76.2703 11.0187 76.6436 11.232L75.9556 13.072C75.721 12.9227 75.369 12.7893 74.8996 12.672C74.4303 12.544 73.9236 12.48 73.3796 12.48C72.8676 12.48 72.473 12.5813 72.1956 12.784C71.929 12.9867 71.7956 13.2587 71.7956 13.6C71.7956 13.92 71.9183 14.1867 72.1636 14.4C72.4196 14.6133 72.7343 14.8107 73.1076 14.992C73.4916 15.1733 73.9023 15.36 74.3396 15.552C74.7876 15.744 75.1983 15.9787 75.5716 16.256C75.9556 16.5227 76.2703 16.8587 76.5156 17.264C76.7716 17.6587 76.8996 18.1547 76.8996 18.752C76.8996 19.3493 76.7983 19.8667 76.5956 20.304C76.4036 20.7307 76.1263 21.088 75.7636 21.376C75.4116 21.664 74.9796 21.8773 74.4676 22.016C73.9663 22.1547 73.4116 22.224 72.8036 22.224C72.0036 22.224 71.2996 22.1493 70.6916 22C70.0836 21.8507 69.6356 21.7013 69.3476 21.552L70.0516 19.68C70.169 19.744 70.3183 19.8133 70.4996 19.888C70.6916 19.9627 70.905 20.032 71.1396 20.096C71.3743 20.16 71.6196 20.2133 71.8756 20.256C72.1423 20.2987 72.4143 20.32 72.6916 20.32C73.3423 20.32 73.8383 20.2133 74.1796 20C74.5316 19.776 74.7076 19.44 74.7076 18.992ZM79.384 10.8H81.576V22H79.384V10.8ZM92.1065 21.536C91.7652 21.7813 91.3278 21.9573 90.7945 22.064C90.2718 22.1707 89.7332 22.224 89.1785 22.224C88.5065 22.224 87.8665 22.1227 87.2585 21.92C86.6612 21.7067 86.1332 21.3707 85.6745 20.912C85.2158 20.4427 84.8478 19.84 84.5705 19.104C84.3038 18.3573 84.1705 17.456 84.1705 16.4C84.1705 15.3013 84.3198 14.384 84.6185 13.648C84.9278 12.9013 85.3225 12.304 85.8025 11.856C86.2932 11.3973 86.8372 11.072 87.4345 10.88C88.0318 10.6773 88.6292 10.576 89.2265 10.576C89.8665 10.576 90.4052 10.6187 90.8425 10.704C91.2905 10.7893 91.6585 10.8907 91.9465 11.008L91.5145 12.864C91.2692 12.7467 90.9758 12.6613 90.6345 12.608C90.3038 12.5547 89.8985 12.528 89.4185 12.528C88.5332 12.528 87.8185 12.8427 87.2745 13.472C86.7412 14.1013 86.4745 15.0773 86.4745 16.4C86.4745 16.976 86.5385 17.504 86.6665 17.984C86.7945 18.4533 86.9865 18.8587 87.2425 19.2C87.5092 19.5307 87.8345 19.792 88.2185 19.984C88.6132 20.1653 89.0665 20.256 89.5785 20.256C90.0585 20.256 90.4638 20.208 90.7945 20.112C91.1252 20.016 91.4132 19.8933 91.6585 19.744L92.1065 21.536Z" fill="white" fill-opacity="0.99" shape-rendering="crispEdges"/>
</g>
<defs>
<filter id="filter0_d" x="30" y="10.576" width="66.1065" height="19.648" filterUnits="userSpaceOnUse" color-interpolation-filters="sRGB">
<feFlood flood-opacity="0" result="BackgroundImageFix"/>
<feColorMatrix in="SourceAlpha" type="matrix" values="0 0 0 0 0 0 0 0 0 0 0 0 0 0 0 0 0 0 127 0" result="hardAlpha"/>
<feOffset dy="4"/>
<feGaussianBlur stdDeviation="2"/>
<feComposite in2="hardAlpha" operator="out"/>
<feColorMatrix type="matrix" values="0 0 0 0 0 0 0 0 0 0 0 0 0 0 0 0 0 0 0.25 0"/>
<feBlend mode="normal" in2="BackgroundImageFix" result="effect1_dropShadow"/>
<feBlend mode="normal" in="SourceGraphic" in2="effect1_dropShadow" result="shape"/>
</filter>
</defs>
</svg>
